PathFileType	4	(X/Y/Z)	/Users/niels/Desktop/University/Third Semester/Perception and Action/Exam/Gymnastics Motion Tracking/Code for Gym Tracking/Analyzed Data/Webcam_Backflip/id18_1_trajectory_Sports2D/id18_1_trajectory_Sports2D_px_person00.trc
DataRate	CameraRate	NumFrames	NumMarkers	Units	OrigDataRate	OrigDataStartFrame	OrigNumFrames
29.872340425531917	29.872340425531917	12	22	m	29.872340425531917	205	235
Frame#	Time	Hip			RHip			RKnee			RAnkle			RBigToe			RSmallToe			RHeel			LHip			LKnee			LAnkle			LBigToe			LSmallToe			LHeel			Neck			Head			Nose			RShoulder			RElbow			RWrist			LShoulder			LElbow			LWrist		
		X1	Y1	Z1	X2	Y2	Z2	X3	Y3	Z3	X4	Y4	Z4	X5	Y5	Z5	X6	Y6	Z6	X7	Y7	Z7	X8	Y8	Z8	X9	Y9	Z9	X10	Y10	Z10	X11	Y11	Z11	X12	Y12	Z12	X13	Y13	Z13	X14	Y14	Z14	X15	Y15	Z15	X16	Y16	Z16	X17	Y17	Z17	X18	Y18	Z18	X19	Y19	Z19	X20	Y20	Z20	X21	Y21	Z21	X22	Y22	Z22
205	6.862535612535613	0.46262259396550603	-0.6571680650809575	0.0	0.4097682798038728	-0.6594786039301488	0.0	0.411484630177811	-0.8747449258925966	0.0	0.41773962686725497	-1.0315150695897806	0.0	0.32137868026632727	-1.0390564703778145	0.0	0.4131752573783421	-1.0675188341095443	0.0	0.4179375856148657	-1.0431697102983886	0.0	0.5164281761554014	-0.6551768448092138	0.0	0.5281365937694085	-0.8731023756967932	0.0	0.541678784583234	-1.0381716039438444	0.0	0.3206836520283845	-1.0206745550002585	0.0	0.3869550699382649	-1.0255338417228002	0.0	0.5378794142400214	-1.0509543182533307	0.0	0.4618255744978189	-0.3424146777810885	0.0	0.4661253940372278	-0.21687073820303912	0.0	0.4621714424524064	-0.2820489418898803	0.0	0.3634049969393073	-0.3993972859549328	0.0	0.33727871674317716	-0.5376106194627353	0.0	0.3251514657305464	-0.6528825606926668	0.0	0.5604639740621176	-0.3987342370078321	0.0	0.5808296882175672	-0.5419277318648538	0.0	0.6022802529286642	-0.6695478992321003	0.0
206	6.896011396011397	0.3307498204641259	-0.6619206339803392	0.0	0.28146865155769085	-0.6651525604411722	0.0	0.28402662197238027	-0.8575220407213572	0.0	0.28858688738168925	-1.0052085038117806	0.0	0.21153659160757615	-1.0141478779559117	0.0	0.2839167852128231	-1.0382120588026165	0.0	0.28753016303718687	-1.0175268704593383	0.0	0.3811548076099673	-0.6607678798010647	0.0	0.39747327126286336	-0.8537259757697225	0.0	0.4198444466410638	-1.0111620672372834	0.0	0.2487030349012539	-1.0064671987446454	0.0	0.3000498667463113	-1.0088169732772172	0.0	0.41726738469683194	-1.0251639320079755	0.0	0.3326294465218397	-0.3853251199938542	0.0	0.33812083495636064	-0.2733196839404238	0.0	0.3313341041849591	-0.32879996250047444	0.0	0.24221692852117394	-0.4335592067917423	0.0	0.22051042176213384	-0.5595530478253214	0.0	0.21090264150062193	-0.664349301284091	0.0	0.4213120324358156	-0.4348417348841767	0.0	0.43863022064057644	-0.5630147864904222	0.0	0.45532483864011764	-0.676564822622094	0.0
207	6.92948717948718	0.21460840781220414	-0.6654568923942962	0.0	0.16835000457697294	-0.669475826081126	0.0	0.17122752773976027	-0.8419401158692874	0.0	0.17385357688629924	-0.9820592129826067	0.0	0.1298661112910215	-0.9962074169456819	0.0	0.16867926749496548	-1.012651209960748	0.0	0.1722544713543462	-0.9953951104899607	0.0	0.2620739897105898	-0.6650925921729067	0.0	0.2825273908378571	-0.8357906451493147	0.0	0.31202179743048736	-0.9873533417034934	0.0	0.19962928623400705	-0.9977844057607531	0.0	0.23897162374403383	-0.9984088274933165	0.0	0.3110091882003753	-1.0026715960606976	0.0	0.21903863269950422	-0.4241978936675747	0.0	0.22537101894422154	-0.3242719521026277	0.0	0.21584094967468168	-0.3712493429253909	0.0	0.13615138892598458	-0.46456215869359	0.0	0.11821050307081589	-0.5793087278394856	0.0	0.10929045453536482	-0.6751759245923072	0.0	0.2988464349466946	-0.46743870145384897	0.0	0.31397079131224315	-0.581666157834473	0.0	0.3268605383140951	-0.6822934349824253	0.0
208	6.962962962962964	0.13419176152706577	-0.6676225347553822	0.0	0.08988132145115904	-0.6722319860003374	0.0	0.09217837375614935	-0.830998541807599	0.0	0.0927699254143315	-0.9658649471113477	0.0	0.08045873891597455	-0.986021703625048	0.0	0.08702486627037792	-0.9951307493888109	0.0	0.09185824830276042	-0.9804420534373667	0.0	0.17974494709535038	-0.6680234600483502	0.0	0.20246637223319994	-0.8231217148097807	0.0	0.2364203777812277	-0.9713727528933764	0.0	0.17193108552700884	-0.9946306315282717	0.0	0.2035705442396033	-0.9944825512515986	0.0	0.2376648792247496	-0.9879303206775958	0.0	0.1407604472804381	-0.4522342883736473	0.0	0.14740092388164897	-0.360790802850004	0.0	0.1356847338846739	-0.4019777334142294	0.0	0.0636704731092623	-0.48704117577983247	0.0	0.0478059428102941	-0.5932760335075319	0.0	0.03740829411608824	-0.6826357279881871	0.0	0.21436279453347734	-0.4909279743789837	0.0	0.22842240169197775	-0.5947550925789941	0.0	0.23885563893632758	-0.6860302345000088	0.0
209	6.996438746438747	0.09062035386935907	-0.6687484466260096	0.0	0.04731856364464212	-0.6737822861411812	0.0	0.047943438328971924	-0.8247334200215621	0.0	0.046383324958390766	-0.9566955171866701	0.0	0.05716476072173481	-0.9821432821109128	0.0	0.040650076401085054	-0.9858422556021404	0.0	0.04781228049707227	-0.9727242825814392	0.0	0.13520504528417507	-0.6699555682558666	0.0	0.15776555360261532	-0.8160944593498318	0.0	0.19359556266470723	-0.9635989690600308	0.0	0.1596269944280149	-0.9959076569870641	0.0	0.18715704080688686	-0.9956333993432421	0.0	0.19837774305789507	-0.981277341549836	0.0	0.09866918899329732	-0.46881496969808134	0.0	0.10511163257309475	-0.3822222508125129	0.0	0.09193724896733065	-0.4203084033560589	0.0	0.02561372361804529	-0.5006490688510095	0.0	0.010192508276985656	-0.6012741403165077	0.0	-0.003608559992384307	-0.6862519523595373	0.0	0.16877577828153506	-0.5047409230085317	0.0	0.1826256643914616	-0.6019675030182371	0.0	0.1915028353354897	-0.6877513177949203	0.0
210	7.02991452991453	0.07392203471318613	-0.6692839112538064	0.0	0.031168114479888754	-0.6746568249097634	0.0	0.029059090366167214	-0.8214407788907085	0.0	0.025203910336689946	-0.9524209288097906	0.0	0.05053295958556358	-0.9822924208820252	0.0	0.020869543767071595	-0.9825813299759271	0.0	0.030831762650250692	-0.9700978457880929	0.0	0.11807006453869455	-0.6713492498091308	0.0	0.13822690955654884	-0.8129081545480127	0.0	0.1741413140720337	-0.9618994241805174	0.0	0.15607129354894164	-1.000072073688814	0.0	0.1817222792842899	-0.9999599922032737	0.0	0.18431567492964437	-0.9806210187279263	0.0	0.08267760753250451	-0.4769919312481377	0.0	0.08856807583487401	-0.39277379549524855	0.0	0.07456537993185952	-0.42952449378109303	0.0	0.012496402743668842	-0.5079238688907612	0.0	-0.003451457850127767	-0.6050310160419451	0.0	-0.02184568188677604	-0.686957540734556	0.0	0.15114775609117503	-0.5113228983214939	0.0	0.16508476677885967	-0.604736019634003	0.0	0.17248827375691067	-0.6878073900196467	0.0
211	7.063390313390314	0.07236557503553709	-0.6694728229905242	0.0	0.03015380511513527	-0.6751486721469911	0.0	0.024454609808869425	-0.8192420744376124	0.0	0.018316901894853733	-0.9505669884152865	0.0	0.052507758686505	-0.9843337507284936	0.0	0.0172539966203686	-0.9826717347500139	0.0	0.02972701085239556	-0.9699666318291498	0.0	0.11622123718216562	-0.6723687598715402	0.0	0.1324445894288352	-0.8114218795574727	0.0	0.16749921740861493	-0.9636205041538795	0.0	0.1563343174761079	-1.0055180483302277	0.0	0.1812046028535424	-1.0056063579019288	0.0	0.18497453917865467	-0.9833562124857789	0.0	0.08113673172366541	-0.4803451592030672	0.0	0.08629297007574396	-0.39729049056814225	0.0	0.07180107786856181	-0.43352603833460185	0.0	0.013274788740453692	-0.5116926029838424	0.0	-0.0034379443741617013	-0.6064108618391845	0.0	-0.026586690714097225	-0.6860140987251688	0.0	0.148904311220331	-0.5136574651342152	0.0	0.1626800250670838	-0.6048654236389928	0.0	0.1680835314354012	-0.6866094443782004	0.0
212	7.096866096866097	0.07739891553115	-0.6693239703980656	0.0	0.03595204771635095	-0.6752390077644856	0.0	0.02610153283315277	-0.8170834286633097	0.0	0.01814861581268097	-0.9493366588236459	0.0	0.05777701084612911	-0.9866871272436412	0.0	0.021476083286004477	-0.9838979668553988	0.0	0.035685549554983265	-0.9702077321941592	0.0	0.1208990646933156	-0.6729191381574996	0.0	0.13261610281060798	-0.8103099770856695	0.0	0.16639016153482858	-0.9666540286753926	0.0	0.15766868503225698	-1.0108412386153822	0.0	0.18218432238413984	-1.0110398704512407	0.0	0.1919696004999025	-0.9873196440989475	0.0	0.08574432845864058	-0.48128938868503984	0.0	0.09014900000349414	-0.39896218437059344	0.0	0.07509538053007049	-0.4349884057268127	0.0	0.01991537303584064	-0.5137172294325364	0.0	0.002760267463306897	-0.6065961706520938	0.0	-0.02435725184465309	-0.6844743054857902	0.0	0.15316797650376418	-0.5138498512130983	0.0	0.166260773898549	-0.6036824933408672	0.0	0.1690062715801349	-0.6844498287972859	0.0
213	7.130341880341881	0.08579987017479548	-0.668775022706515	0.0	0.04523981441867584	-0.6747720179368328	0.0	0.031033817808209616	-0.8153252848248392	0.0	0.022404586414642585	-0.948080922139219	0.0	0.06339202136679115	-0.9884442769452122	0.0	0.028211747148414113	-0.984831010248608	0.0	0.0434685433986023	-0.9694896848857874	0.0	0.12895261787817433	-0.6728840945908351	0.0	0.1363360054070844	-0.8096585935567376	0.0	0.16861848285395853	-0.9699382356713369	0.0	0.15892111312559426	-1.0150764314592142	0.0	0.18322963635258246	-1.0152857078546091	0.0	0.20007168966702366	-0.9911113957550283	0.0	0.09360456591123502	-0.4803147866959439	0.0	0.09740579348182044	-0.39833762428430763	0.0	0.08137555760390076	-0.4343531983729032	0.0	0.029297293784168076	-0.5141009906624643	0.0	0.01220624280864548	-0.6058311640655122	0.0	-0.017653908925610928	-0.6830248211154548	0.0	0.16099287406224133	-0.5123945437113895	0.0	0.17309723980549283	-0.6015844934033937	0.0	0.17285261076898734	-0.6813930447118145	0.0
214	7.163817663817664	0.10030937151809947	-0.6678356458483101	0.0	0.06027404913315559	-0.673650575972734	0.0	0.04203154587806821	-0.8160156998366189	0.0	0.03437534246697933	-0.9473867422521451	0.0	0.06807036534967416	-0.9893243131147205	0.0	0.03480705723782911	-0.9848159895308543	0.0	0.05085372080244146	-0.9672300346130287	0.0	0.14352110485731293	-0.6722790106893499	0.0	0.146907017041062	-0.8112040108128143	0.0	0.17749328885431095	-0.9735986478349805	0.0	0.1597842162500223	-1.0178407864338344	0.0	0.1839883734396641	-1.0180093836652004	0.0	0.20678724214352498	-0.9940646182818229	0.0	0.10778295461660256	-0.4756167387644353	0.0	0.11126578630382915	-0.39298614059730586	0.0	0.09384416090522929	-0.4292931340412209	0.0	0.043683751562039116	-0.5110265406240281	0.0	0.02677202672951639	-0.6033738272729279	0.0	-0.0048671809075448765	-0.6820366975279922	0.0	0.17600563662235788	-0.5078414427153123	0.0	0.18754231671172383	-0.5978999046952419	0.0	0.18477678085307783	-0.6771718233074309	0.0
215	7.197293447293448	0.12917990653517636	-0.666650150292955	0.0	0.08844935735859455	-0.671982296051546	0.0	0.06732223820206208	-0.8228032574111438	0.0	0.06202809942672752	-0.9488942590139854	0.0	0.07162944571704022	-0.9895013383741387	0.0	0.040511563911831576	-0.9838287987525711	0.0	0.05744383812478578	-0.9634309516563905	0.0	0.17352903410526826	-0.6713310149655587	0.0	0.17282678084106876	-0.8182861911646693	0.0	0.20123542729677632	-0.978757767384212	0.0	0.16031216635669956	-1.0192775118120554	0.0	0.18454722113712863	-1.01939112826858	0.0	0.21139461129231576	-0.9960464851838088	0.0	0.13682046681581275	-0.46304085118179794	0.0	0.1403267477890691	-0.3775973044270908	0.0	0.12160542403543168	-0.41467801639303686	0.0	0.07016715586552126	-0.5007587734641339	0.0	0.052574269590111675	-0.5975798320005272	0.0	0.01923991589384144	-0.6817204675325017	0.0	0.20793935137301375	-0.49677230037557607	0.0	0.22038781545653482	-0.5909231983682738	0.0	0.217031571649942	-0.6710017562572888	0.0
216	7.230769230769231	0.18412921807130034	-0.6654879544099456	0.0	0.1404098628346854	-0.6701286943649352	0.0	0.11864638126516844	-0.8402418500239942	0.0	0.11543158354766457	-0.9548593470295664	0.0	0.07442119150960298	-0.9893715712144808	0.0	0.04555032943434882	-0.9823113689768506	0.0	0.06363892114470966	-0.9586474481103878	0.0	0.23150251758673526	-0.6705109848143105	0.0	0.22588187774160873	-0.8352614241358024	0.0	0.25085390493278004	-0.9870411940718208	0.0	0.1606606758629697	-1.0198212664449018	0.0	0.18506966010584644	-1.0198741492587675	0.0	0.21407831318634615	-0.9972278060529052	0.0	0.19263829132928842	-0.43682615172755235	0.0	0.19647549611797577	-0.3450148404223046	0.0	0.17749910140872352	-0.38349176813725905	0.0	0.1187024017056181	-0.4782480105821946	0.0	0.09826722575799011	-0.5862285230634968	0.0	0.062077176691591525	-0.6823373855499781	0.0	0.2703766810766387	-0.47438134861534786	0.0	0.2864079496263735	-0.5781846378162842	0.0	0.2864671694479745	-0.6615351028067331	0.0
